<svg width="290" height="321" viewBox="0 0 290 321" fill="none" xmlns="http://www.w3.org/2000/svg">
<path d="M197.925 248.75C197.925 218.374 173.3 193.75 142.925 193.75L82.9248 193.75C52.5491 193.75 27.9248 218.374 27.9248 248.75C27.9248 279.126 52.5491 303.75 82.9248 303.75L192.925 303.75C195.686 303.75 197.925 301.511 197.925 298.75L197.925 248.75Z" fill="white"/>
<path d="M182.925 17.5569C182.925 15.9 184.268 14.5569 185.925 14.5569L194.925 14.5569C196.582 14.5569 197.925 15.9 197.925 17.5569V186.707C197.925 188.364 196.582 189.707 194.925 189.707H185.925C184.268 189.707 182.925 188.364 182.925 186.707V17.5569Z" fill="white"/>
<path d="M189.299 21.5419C188.117 19.3594 189.188 16.6769 191.529 15.8535L193.393 15.198C195.189 14.5664 197.163 15.2613 198.12 16.9067C208.698 35.088 266.274 136.531 247.453 159.033C226.759 183.775 227.381 196.995 238.021 162.351C247.434 131.701 200.293 41.8507 189.299 21.5419Z" fill="white"/>
<path d="M142.925 303.627C112.549 303.627 87.9248 279.003 87.9248 248.627V188.627C87.9248 158.251 112.549 133.627 142.925 133.627C173.3 133.627 197.925 158.251 197.925 188.627V298.627C197.925 301.388 195.686 303.627 192.925 303.627H142.925Z" fill="white"/>
<path d="M142.925 288.627C120.833 288.627 102.925 270.718 102.925 248.627V188.627C102.925 166.536 120.833 148.627 142.925 148.627C165.016 148.627 182.925 166.536 182.925 188.627V283.627C182.925 286.388 180.686 288.627 177.925 288.627H142.925Z" fill="#2400FF" fill-opacity="0.5"/>
<path d="M182.925 248.75C182.925 226.659 165.016 208.75 142.925 208.75L82.9248 208.75C60.8334 208.75 42.9248 226.659 42.9248 248.75C42.9248 270.841 60.8334 288.75 82.9248 288.75L177.925 288.75C180.686 288.75 182.925 286.511 182.925 283.75L182.925 248.75Z" fill="#FF0000" fill-opacity="0.5"/>
</svg>
